<svg xmlns="http://www.w3.org/2000/svg" width="800" height="440" viewBox="0 0 800 440" role="img" aria-labelledby="animals-r1-title animals-r1-desc"><title id="animals-r1-title">A pond fish needs water</title><desc id="animals-r1-desc">A pond fish icon above two equally framed pictures: a pond with water and aquatic plants on the left; a dry grassy patch on the right.</desc><rect width="800" height="440" fill="#f7f9f8"/><circle cx="400" cy="86" r="74" fill="#ffffff" stroke="#cbd5d8" stroke-width="3"/><g transform="translate(400 88) scale(.72)"><path d="M-60 0 L-95 -32 L-95 32 Z" fill="#d8a741" stroke="#20262d" stroke-width="4"/><ellipse cx="-5" cy="0" rx="63" ry="34" fill="#d8a741" stroke="#20262d" stroke-width="4"/><path d="M-25 -31 L-8 -52 L18 -31 M-22 30 L-5 48 L17 30" fill="#d8a741" stroke="#20262d" stroke-width="4" stroke-linejoin="round"/><path d="M12 -25 Q-1 0 12 25" fill="none" stroke="#20262d" stroke-width="3"/><circle cx="35" cy="-7" r="6" fill="#20262d"/><path d="M52 6 L59 9" stroke="#20262d" stroke-width="3"/></g><g id="animals-r1-choice-a" transform="translate(40 177)"><rect width="340" height="238" rx="25" fill="white" stroke="#cbd5d8" stroke-width="3"/><rect x="5" y="5" width="330" height="228" rx="23" fill="#eaf4f8"/><path d="M5 83.3 Q78.2 47.6 153.0 80.92 T335 83.3 L335 233 L5 233Z" fill="#85c8d9"/><path d="M15 111.86 Q102.0 95.2 193.79999999999998 114.24 T325 109.48" fill="none" stroke="#4d9cad" stroke-width="4"/><path d="M47.6 226 Q34.0 157.08 57.800000000000004 130.9 M51.0 226 Q81.6 142.79999999999998 91.80000000000001 121.38 M282.2 226 Q292.4 130.9 272.0 99.96" fill="none" stroke="#318545" stroke-width="8" stroke-linecap="round"/><ellipse cx="224.4" cy="188.02" rx="34.0" ry="16.66" fill="#759796"/><circle cx="142.79999999999998" cy="130.9" r="5" fill="white"/><circle cx="166.6" cy="154.70000000000002" r="4" fill="white"/></g><g id="animals-r1-choice-b" transform="translate(420 177)"><rect width="340" height="238" rx="25" fill="white" stroke="#cbd5d8" stroke-width="3"/><rect x="5" y="5" width="330" height="228" rx="23" fill="#eaf4e7"/><path d="M5 104.72 Q170.0 57.12 335 104.72 L335 233 L5 233 Z" fill="#84b868"/><path d="M57.800000000000004 185.64000000000001 l-7 -15 m7 15 l7 -16" fill="none" stroke="#318545" stroke-width="4"/><path d="M170.0 185.64000000000001 l-7 -15 m7 15 l7 -16" fill="none" stroke="#318545" stroke-width="4"/><path d="M272.0 185.64000000000001 l-7 -15 m7 15 l7 -16" fill="none" stroke="#318545" stroke-width="4"/></g></svg>
