<svg xmlns="http://www.w3.org/2000/svg" width="800" height="440" viewBox="0 0 800 440" role="img" aria-labelledby="cars-r3-title cars-r3-desc">
<title id="cars-r3-title">Small and big</title>
<desc id="cars-r3-desc">The same car and ramp appear above three sets of wheels: small round wheels on the left, medium square wheels in the middle, and large round wheels on the right.</desc>
<rect width="800" height="440" fill="#f4f6f7"/>
<rect x="0" y="0" width="800" height="268" fill="#edf4f7"/>
<path d="M75 184L635 256H75Z" fill="#d1b38b"/>
<path d="M75 184L635 256" fill="none" stroke="#899ca9" stroke-width="13" stroke-linecap="round"/>
<g transform="translate(625 54)"><path d="M0 21L61 0 122 21V137H0Z" fill="#317daf" stroke="#20262d" stroke-width="3"/><path d="M28 137V66A33 33 0 0 1 94 66V137Z" fill="#e5f1f7" stroke="#20262d" stroke-width="3"/></g>
<g transform="translate(126 91) rotate(7.3)"><path d="M0 23H79L85 0H130L144 23H174V66H0Z" fill="#317daf" stroke="#20262d" stroke-width="3"/><path d="M90 7H125L134 23H86Z" fill="#e5f1f7" stroke="#20262d" stroke-width="2"/><rect x="167" y="30" width="11" height="12" rx="3" fill="#f2c230"/><rect x="0" y="48" width="174" height="8" fill="#31a4ae"/><rect x="19" y="0" width="45" height="32" rx="3" fill="#dca969" stroke="#20262d" stroke-width="2"/><path d="M41 0V32" stroke="#f1d7b1" stroke-width="8"/><circle cx="30" cy="69" r="6" fill="#20262d"/><circle cx="145" cy="69" r="6" fill="#20262d"/></g><g transform="translate(731 206)"><circle r="35" fill="#d9dfe3" stroke="#20262d" stroke-width="3"/><path d="M-25-24Q-9 0-27 25M23-25Q9 0 25 24" fill="none" stroke="#317daf" stroke-width="4"/><ellipse cx="-10" cy="-5" rx="4" ry="6" fill="#20262d"/><ellipse cx="10" cy="-5" rx="4" ry="6" fill="#20262d"/><path d="M-9 11Q0 20 10 11" fill="none" stroke="#20262d" stroke-width="3" stroke-linecap="round"/></g>
<g><rect x="29" y="280" width="224" height="142" rx="18" fill="#fff" stroke="#c6d0d6" stroke-width="2"/><circle cx="91" cy="351" r="25" fill="#35404a" stroke="#20262d" stroke-width="3"/><circle cx="91" cy="351" r="10.75" fill="#d9dfe3" stroke="#20262d" stroke-width="2"/><circle cx="191" cy="351" r="25" fill="#35404a" stroke="#20262d" stroke-width="3"/><circle cx="191" cy="351" r="10.75" fill="#d9dfe3" stroke="#20262d" stroke-width="2"/></g>
<g><rect x="288" y="280" width="224" height="142" rx="18" fill="#fff" stroke="#c6d0d6" stroke-width="2"/><rect x="316" y="317" width="68" height="68" fill="#35404a" stroke="#20262d" stroke-width="3"/><circle cx="350" cy="351" r="14.62" fill="#d9dfe3" stroke="#20262d" stroke-width="2"/><rect x="416" y="317" width="68" height="68" fill="#35404a" stroke="#20262d" stroke-width="3"/><circle cx="450" cy="351" r="14.62" fill="#d9dfe3" stroke="#20262d" stroke-width="2"/></g>
<g><rect x="547" y="280" width="224" height="142" rx="18" fill="#fff" stroke="#c6d0d6" stroke-width="2"/><circle cx="609" cy="351" r="40" fill="#35404a" stroke="#20262d" stroke-width="3"/><circle cx="609" cy="351" r="17.2" fill="#d9dfe3" stroke="#20262d" stroke-width="2"/><circle cx="709" cy="351" r="40" fill="#35404a" stroke="#20262d" stroke-width="3"/><circle cx="709" cy="351" r="17.2" fill="#d9dfe3" stroke="#20262d" stroke-width="2"/></g>
</svg>
