<svg xmlns="http://www.w3.org/2000/svg" width="800" height="440" viewBox="0 0 800 440" role="img" aria-labelledby="words-r5-title words-r5-desc">
<title id="words-r5-title">More than one way</title>
<desc id="words-r5-desc">Pip and a water droplet above three equal panels: a blue handled cup on the left, a silver fork in the middle, and a deep teal bowl on the right.</desc>
<rect width="800" height="440" rx="24" fill="#f3f7f8"/>
<g id="words-r5-pip" transform="translate(82 69)"><circle r="43" fill="#e4e8ec" stroke="#20262d" stroke-width="3"/><path d="M-24-34 Q-1-11-22 34 M23-35 Q4-4 23 35" fill="none" stroke="#317daf" stroke-width="7"/><ellipse cx="-12" cy="-3" rx="4" ry="7" fill="#20262d"/><ellipse cx="12" cy="-3" rx="4" ry="7" fill="#20262d"/><path d="M-12 14 Q0 26 12 14" fill="none" stroke="#20262d" stroke-width="3" stroke-linecap="round"/></g>
<g id="words-r5-water" transform="translate(400 65)"><path d="M0-44 C-13-19-32 1-32 19 A32 32 0 0 0 32 19 C32 1 13-19 0-44Z" fill="#83d5e1" stroke="#20262d" stroke-width="3"/><path d="M-18 12 Q-21 30-9 37" fill="none" stroke="#fff" stroke-width="4" stroke-linecap="round"/></g>
<g id="words-r5-option-a"><title>Blue handled cup</title><rect x="30" y="145" width="230" height="270" rx="24" fill="#fff" stroke="#cdd7dc" stroke-width="3"/><g transform="translate(145 279) scale(.88)"><path d="M47-42 H73 Q100-42 100-8 Q100 29 66 29 H52" fill="none" stroke="#20262d" stroke-width="8"/><path d="M47-42 H73 Q94-42 94-8 Q94 23 65 23 H52" fill="none" stroke="#317daf" stroke-width="15"/><path d="M-64-54 L-56 68 Q-54 84 0 84 Q54 84 56 68 L64-54Z" fill="#317daf" stroke="#20262d" stroke-width="4"/><ellipse cy="-54" rx="64" ry="17" fill="#d5eef5" stroke="#20262d" stroke-width="4"/><ellipse cy="-54" rx="53" ry="10" fill="#154965"/><path d="M-42-28 L-38 53" stroke="#79bddc" stroke-width="7" stroke-linecap="round"/></g></g>
<g id="words-r5-option-b"><title>Fork</title><rect x="285" y="145" width="230" height="270" rx="24" fill="#fff" stroke="#cdd7dc" stroke-width="3"/><g transform="translate(400 279) scale(.88)"><path d="M-43-99 H-29 V-42 H-16 V-99 H-3 V-42 H10 V-99 H23 V-42 H36 V-99 H49 V-29 Q49 0 13 10 L15 96 Q15 113 3 113 Q-9 113-9 96 L-7 10 Q-43 0-43-29Z" fill="#c6d2db" stroke="#20262d" stroke-width="4" stroke-linejoin="round"/></g></g>
<g id="words-r5-option-c"><title>Deep bowl</title><rect x="540" y="145" width="230" height="270" rx="24" fill="#fff" stroke="#cdd7dc" stroke-width="3"/><g transform="translate(655 279) scale(.88)"><path d="M-91-33 Q-80 72-34 86 H34 Q80 72 91-33Z" fill="#31a4ae" stroke="#20262d" stroke-width="4"/><ellipse cy="-33" rx="91" ry="28" fill="#d1eef0" stroke="#20262d" stroke-width="4"/><ellipse cy="-33" rx="78" ry="20" fill="#197b84"/><path d="M-66-2 Q-61 45-31 60" fill="none" stroke="#79d1d7" stroke-width="6" stroke-linecap="round"/></g></g>
</svg>

