<svg xmlns="http://www.w3.org/2000/svg" width="800" height="440" viewBox="0 0 800 440" role="img" aria-labelledby="words-r4-title words-r4-desc">
<title id="words-r4-title">Clean a little spill</title>
<desc id="words-r4-desc">Pip and a small blue water puddle above three equal panels: a sponge on the left, a folded cloth napkin in the middle, and a silver fork on the right.</desc>
<rect width="800" height="440" rx="24" fill="#f3f7f8"/>
<g id="words-r4-pip" transform="translate(82 69)"><circle r="43" fill="#e4e8ec" stroke="#20262d" stroke-width="3"/><path d="M-24-34 Q-1-11-22 34 M23-35 Q4-4 23 35" fill="none" stroke="#317daf" stroke-width="7"/><ellipse cx="-12" cy="-3" rx="4" ry="7" fill="#20262d"/><ellipse cx="12" cy="-3" rx="4" ry="7" fill="#20262d"/><path d="M-12 14 Q0 26 12 14" fill="none" stroke="#20262d" stroke-width="3" stroke-linecap="round"/></g>
<g id="words-r4-spill" transform="translate(400 70)"><path d="M-94 6 C-82-7-54-11-37-7 C-21-28 1-20 15-11 C40-23 62-7 67 0 C100-3 109 14 85 25 C59 34 14 32-12 28 C-39 36-88 29-98 17Z" fill="#a6deea" stroke="#317daf" stroke-width="3"/><ellipse cx="111" cy="26" rx="8" ry="5" fill="#a6deea"/><ellipse cx="-118" cy="-1" rx="6" ry="4" fill="#a6deea"/></g>
<g id="words-r4-option-a"><title>Sponge</title><rect x="30" y="145" width="230" height="270" rx="24" fill="#fff" stroke="#cdd7dc" stroke-width="3"/><g transform="translate(145 279) scale(.88)"><rect x="-93" y="-52" width="186" height="114" rx="19" fill="#d6a415" stroke="#20262d" stroke-width="4"/><rect x="-93" y="-62" width="186" height="105" rx="19" fill="#f2c230" stroke="#20262d" stroke-width="4"/><g fill="#cf9f14"><ellipse cx="-62" cy="-32" rx="9" ry="6"/><ellipse cx="-25" cy="-17" rx="7" ry="9"/><ellipse cx="24" cy="-35" rx="10" ry="7"/><ellipse cx="62" cy="-12" rx="7" ry="9"/><ellipse cx="-56" cy="16" rx="10" ry="7"/><ellipse cx="9" cy="15" rx="8" ry="6"/><ellipse cx="49" cy="25" rx="10" ry="5"/></g></g></g>
<g id="words-r4-option-b"><title>Cloth napkin</title><rect x="285" y="145" width="230" height="270" rx="24" fill="#fff" stroke="#cdd7dc" stroke-width="3"/><g transform="translate(400 279) scale(.88)"><path d="M-91-52 L81-42 L98 64 L-73 80Z" fill="#d1eef0" stroke="#20262d" stroke-width="4"/><path d="M-91-52 L-75 51 L98 64 M-75 51 L-73 80 M-64-42 L-51 58 M-40-43 L-27 60 M-16-42 L-3 62 M8-42 L21 62 M32-41 L45 60 M56-41 L69 61" fill="none" stroke="#31a4ae" stroke-width="5"/><path d="M-86-20 L87-11 M-82 12 L91 21 M-79 40 L95 49" fill="none" stroke="#31a4ae" stroke-width="5"/></g></g>
<g id="words-r4-option-c"><title>Fork</title><rect x="540" y="145" width="230" height="270" rx="24" fill="#fff" stroke="#cdd7dc" stroke-width="3"/><g transform="translate(655 279) scale(.88)"><path d="M-43-99 H-29 V-42 H-16 V-99 H-3 V-42 H10 V-99 H23 V-42 H36 V-99 H49 V-29 Q49 0 13 10 L15 96 Q15 113 3 113 Q-9 113-9 96 L-7 10 Q-43 0-43-29Z" fill="#c6d2db" stroke="#20262d" stroke-width="4" stroke-linejoin="round"/></g></g>
</svg>

