<svg xmlns="http://www.w3.org/2000/svg" width="800" height="440" viewBox="0 0 800 440" role="img" aria-labelledby="colors-r1-title colors-r1-desc"><title id="colors-r1-title">Find the first paint</title><desc id="colors-r1-desc">Two large paint pots: blue with a circle badge on the left and yellow with a triangle badge on the right. Pip waits above them.</desc><rect width="800" height="440" fill="#f6f8f7"/><g font-family="system-ui, sans-serif"><g transform="translate(400 81)"><circle r="38" fill="#d5dade" stroke="#20262d" stroke-width="3"/><path d="M-29,-24Q-9,0 -28,24 M28,-24Q9,0 28,24" fill="none" stroke="#317daf" stroke-width="4"/><ellipse cx="-10" cy="-6" rx="4" ry="7" fill="#20262d"/><ellipse cx="10" cy="-6" rx="4" ry="7" fill="#20262d"/><path d="M-10,10Q0,22 10,10" stroke="#20262d" stroke-width="3" fill="none"/></g><rect x="120" y="245" width="250" height="177" rx="22" fill="white" stroke="#bec8cc" stroke-width="2"/><rect x="430" y="245" width="250" height="177" rx="22" fill="white" stroke="#bec8cc" stroke-width="2"/><g transform="translate(245 309) scale(1)"><path d="M-57,-32 L-47,57 Q0,75 47,57 L57,-32Z" fill="#f0f3f4" stroke="#20262d" stroke-width="3"/><ellipse cy="-32" rx="57" ry="20" fill="#317daf" stroke="#20262d" stroke-width="3"/><g transform="translate(0 13) scale(1)" fill="white" stroke="#20262d" stroke-width="2"><circle r="12"/></g><text y="101" text-anchor="middle" font-size="30" fill="#20262d">Blue</text></g><g transform="translate(555 309) scale(1)"><path d="M-57,-32 L-47,57 Q0,75 47,57 L57,-32Z" fill="#f0f3f4" stroke="#20262d" stroke-width="3"/><ellipse cy="-32" rx="57" ry="20" fill="#f2c230" stroke="#20262d" stroke-width="3"/><g transform="translate(0 13) scale(1)" fill="white" stroke="#20262d" stroke-width="2"><path d="M0,-13 L14,11 L-14,11 Z"/></g><text y="101" text-anchor="middle" font-size="30" fill="#20262d">Yellow</text></g></g></svg>
